<svg width="161" height="178" viewBox="0 0 161 178" fill="none" xmlns="http://www.w3.org/2000/svg">
<path d="M157.748 174.42L121.115 122.143H0.695312V176.698H126.55H153.909H159.342L157.748 174.42Z" fill="white"/>
<path d="M159.341 177.688H0.69445C0.310484 177.688 0 177.245 0 176.697V122.142C0 121.594 0.310484 121.15 0.69445 121.15H121.114C121.299 121.15 121.474 121.255 121.605 121.441L159.833 175.997C160.031 176.281 160.09 176.707 159.983 177.077C159.875 177.447 159.622 177.688 159.341 177.688ZM1.38849 175.707H157.667L120.826 123.133H1.3889V175.707H1.38849Z" fill="black"/>
<path d="M153.911 0.990234H126.552C123.562 0.990234 121.117 4.47655 121.117 8.74253V122.141L157.751 174.418L159.344 176.697H159.347V122.141V8.74253C159.347 4.47655 156.901 0.990234 153.911 0.990234Z" fill="#FFB887"/>
<path d="M159.346 177.687C159.166 177.687 158.988 177.587 158.855 177.397L120.625 122.842C120.495 122.656 120.422 122.404 120.422 122.141V8.74286C120.422 3.92138 123.171 0 126.552 0H153.911C157.291 0 160.041 3.92138 160.041 8.74286V176.697C160.041 177.097 159.871 177.46 159.612 177.613C159.526 177.663 159.436 177.687 159.346 177.687ZM121.811 121.731L158.653 174.304V8.74286C158.653 5.0151 156.526 1.98228 153.911 1.98228H126.552C123.938 1.98228 121.811 5.01568 121.811 8.74286V121.731Z" fill="black"/>
<path d="M126.547 118.928V8.74219H153.905V157.983L126.547 118.928Z" fill="#F0AD7F"/>
<path d="M153.905 158.975C153.725 158.975 153.547 158.875 153.414 158.685L126.055 119.63C125.925 119.444 125.852 119.192 125.852 118.928V8.7431C125.852 8.19509 126.162 7.75195 126.546 7.75195H153.905C154.289 7.75195 154.599 8.19451 154.599 8.7431V157.984C154.599 158.384 154.43 158.747 154.171 158.9C154.085 158.95 153.995 158.975 153.905 158.975ZM127.241 118.518L153.211 155.592V9.73367H127.241V118.518Z" fill="black"/>
<path d="M143.917 19.757C143.917 22.6608 142.27 25.0182 140.233 25.0182C138.199 25.0182 136.547 22.6608 136.547 19.757C136.547 16.8522 138.199 14.4941 140.233 14.4941C142.27 14.4941 143.917 16.8522 143.917 19.757Z" fill="white"/>
<path d="M140.232 26.0103C137.817 26.0103 135.852 23.2056 135.852 19.7579C135.852 16.3085 137.816 13.5039 140.232 13.5039C142.646 13.5039 144.61 16.3079 144.61 19.7579C144.61 23.2056 142.646 26.0103 140.232 26.0103ZM140.232 15.4862C138.582 15.4862 137.24 17.4022 137.24 19.7579C137.24 22.1114 138.582 24.0274 140.232 24.0274C141.88 24.0274 143.221 22.1114 143.221 19.7579C143.221 17.4022 141.88 15.4862 140.232 15.4862Z" fill="black"/>
<path d="M144.366 177.686C143.982 177.686 143.672 177.243 143.672 176.696V162.887C143.672 162.34 143.982 161.896 144.366 161.896C144.75 161.896 145.06 162.339 145.06 162.887V176.696C145.06 177.244 144.75 177.686 144.366 177.686Z" fill="black"/>
<path d="M133.89 177.688C133.507 177.688 133.195 177.245 133.195 176.698V169.796C133.195 169.248 133.507 168.805 133.89 168.805C134.274 168.805 134.585 169.247 134.585 169.796V176.698C134.585 177.246 134.274 177.688 133.89 177.688Z" fill="black"/>
<path d="M123.804 177.686C123.42 177.686 123.109 177.243 123.109 176.696V162.887C123.109 162.34 123.42 161.896 123.804 161.896C124.187 161.896 124.498 162.339 124.498 162.887V176.696C124.498 177.244 124.187 177.686 123.804 177.686Z" fill="black"/>
<path d="M113.328 177.688C112.944 177.688 112.633 177.245 112.633 176.698V169.796C112.633 169.248 112.944 168.805 113.328 168.805C113.712 168.805 114.022 169.247 114.022 169.796V176.698C114.022 177.246 113.712 177.688 113.328 177.688Z" fill="black"/>
<path d="M103.241 177.686C102.858 177.686 102.547 177.243 102.547 176.696V162.887C102.547 162.34 102.857 161.896 103.241 161.896C103.625 161.896 103.936 162.339 103.936 162.887V176.696C103.936 177.244 103.625 177.686 103.241 177.686Z" fill="black"/>
<path d="M92.7648 177.688C92.3808 177.688 92.0703 177.245 92.0703 176.698V169.796C92.0703 169.248 92.3808 168.805 92.7648 168.805C93.1483 168.805 93.4592 169.247 93.4592 169.796V176.698C93.4588 177.246 93.1483 177.688 92.7648 177.688Z" fill="black"/>
<path d="M82.6788 177.686C82.2948 177.686 81.9844 177.243 81.9844 176.696V162.887C81.9844 162.34 82.2948 161.896 82.6788 161.896C83.0624 161.896 83.3737 162.339 83.3737 162.887V176.696C83.3737 177.244 83.0624 177.686 82.6788 177.686Z" fill="black"/>
<path d="M72.2023 177.688C71.8183 177.688 71.5078 177.245 71.5078 176.698V169.796C71.5078 169.248 71.8179 168.805 72.2023 168.805C72.5858 168.805 72.8963 169.247 72.8963 169.796V176.698C72.8963 177.246 72.5858 177.688 72.2023 177.688Z" fill="black"/>
<path d="M62.1159 177.686C61.7324 177.686 61.4219 177.243 61.4219 176.696V162.887C61.4219 162.34 61.732 161.896 62.1159 161.896C62.4999 161.896 62.8104 162.339 62.8104 162.887V176.696C62.81 177.244 62.4999 177.686 62.1159 177.686Z" fill="black"/>
<path d="M51.6398 177.688C51.2562 177.688 50.9453 177.245 50.9453 176.698V169.796C50.9453 169.248 51.2562 168.805 51.6398 168.805C52.0237 168.805 52.3342 169.247 52.3342 169.796V176.698C52.3342 177.246 52.0237 177.688 51.6398 177.688Z" fill="black"/>
<path d="M41.5616 177.686C41.1777 177.686 40.8672 177.243 40.8672 176.696V162.887C40.8672 162.34 41.1773 161.896 41.5616 161.896C41.9452 161.896 42.2557 162.339 42.2557 162.887V176.696C42.2553 177.244 41.9452 177.686 41.5616 177.686Z" fill="black"/>
<path d="M31.0851 177.688C30.7011 177.688 30.3906 177.245 30.3906 176.698V169.796C30.3906 169.248 30.7015 168.805 31.0851 168.805C31.469 168.805 31.7791 169.247 31.7791 169.796V176.698C31.7795 177.246 31.469 177.688 31.0851 177.688Z" fill="black"/>
<path d="M20.9987 177.686C20.6148 177.686 20.3047 177.243 20.3047 176.696V162.887C20.3047 162.34 20.6152 161.896 20.9987 161.896C21.3827 161.896 21.6932 162.339 21.6932 162.887V176.696C21.6936 177.244 21.3827 177.686 20.9987 177.686Z" fill="black"/>
<path d="M10.5226 177.688C10.139 177.688 9.82812 177.245 9.82812 176.698V169.796C9.82812 169.248 10.139 168.805 10.5226 168.805C10.9065 168.805 11.217 169.247 11.217 169.796V176.698C11.217 177.246 10.9065 177.688 10.5226 177.688Z" fill="black"/>
</svg>
