<svg width="26" height="305" viewBox="0 0 26 305" fill="none" xmlns="http://www.w3.org/2000/svg">
<path d="M18.789 269.438H25.0548V32.123H0.695312V269.438L12.0027 259.75L18.789 269.438Z" fill="#58D0FF"/>
<path d="M25.0539 270.43H18.7881C18.6036 270.43 18.4276 270.325 18.2976 270.139L11.8945 261L1.05137 270.289C0.838187 270.474 0.570508 270.477 0.352887 270.302C0.135266 270.126 0 269.795 0 269.439V32.124C0 31.5765 0.3109 31.1328 0.694463 31.1328H25.0539C25.4375 31.1328 25.7484 31.5765 25.7484 32.124V269.439C25.7479 269.987 25.4375 270.43 25.0539 270.43ZM19.076 268.448H24.3595V33.1151H1.3889V267.688L11.6449 258.902C11.9175 258.666 12.2679 258.728 12.4932 259.051L19.076 268.448Z" fill="black"/>
<path d="M12.8701 303.218L17.7995 289.57H7.9375L12.8701 303.218Z" fill="#A7A9AC"/>
<path d="M12.8688 304.208C12.6088 304.208 12.371 304.001 12.2515 303.672L7.3197 290.025C7.20826 289.717 7.21755 289.349 7.34392 289.055C7.46949 288.758 7.69438 288.578 7.93663 288.578H17.7986C18.0409 288.578 18.2654 288.759 18.3917 289.055C18.5177 289.349 18.527 289.716 18.4164 290.025L13.4866 303.672C13.3667 304.001 13.1281 304.208 12.8688 304.208ZM9.0756 290.561L12.8688 301.056L16.6592 290.561H9.0756Z" fill="black"/>
<path d="M17.8018 289.571L25.0548 269.44H18.789L12.0027 259.752L0.695312 269.44L7.9398 289.571H17.8018Z" fill="white"/>
<path d="M17.8007 290.562H7.93869C7.67827 290.562 7.44047 290.355 7.32136 290.024L0.076854 269.891C-0.0902985 269.426 0.0235669 268.858 0.337281 268.589L11.6451 258.901C11.9197 258.668 12.2689 258.727 12.4934 259.05L19.0765 268.447H25.0544C25.2967 268.447 25.5208 268.628 25.6472 268.921C25.7735 269.218 25.7828 269.583 25.6722 269.891L18.4196 290.024C18.2989 290.355 18.0607 290.562 17.8007 290.562ZM8.36262 288.579H17.3772L23.9155 270.43H18.7878C18.6033 270.43 18.4273 270.325 18.2973 270.139L11.8942 261L1.60868 269.81L8.36262 288.579Z" fill="black"/>
<path d="M11.9995 260.745C11.616 260.745 11.3047 260.3 11.3047 259.753V215.046C11.3047 214.498 11.616 214.055 11.9995 214.055C12.3835 214.055 12.694 214.498 12.694 215.046V259.753C12.694 260.3 12.3839 260.745 11.9995 260.745Z" fill="black"/>
<path d="M11.9995 51.9867C11.616 51.9867 11.3047 51.5436 11.3047 50.9956V32.124C11.3047 31.5765 11.616 31.1328 11.9995 31.1328C12.3835 31.1328 12.694 31.5765 12.694 32.124V50.9956C12.694 51.5436 12.3839 51.9867 11.9995 51.9867Z" fill="black"/>
<path d="M23.976 32.1239V16.8192C23.976 8.06831 19.0018 0.990234 12.8705 0.990234C6.74198 0.990234 1.77344 8.06831 1.77344 16.8192V32.1239H23.976Z" fill="white"/>
<path d="M23.9756 33.1159H1.77298C1.38902 33.1159 1.07812 32.6728 1.07812 32.1248V16.8202C1.07812 7.54484 6.36805 0 12.87 0C19.3761 0 24.67 7.54484 24.67 16.8202V32.1248C24.6696 32.6728 24.3591 33.1159 23.9756 33.1159ZM2.46703 31.1336H23.2811V16.8202C23.2811 8.63856 18.611 1.98172 12.87 1.98172C7.13316 1.98172 2.46703 8.63856 2.46703 16.8202V31.1336Z" fill="black"/>
</svg>
